<svg xmlns="http://www.w3.org/2000/svg" version="1.1" width="600px" height="600px" xlink="http://www.w3.org/1999/xlink" style="overflow:hidden!important;"><g id="svga-group-wrapper" transform="scale(3 3)"><g id="svga-group-backs-single"><path id="SvgjsPath3421" d="M225 225H-25V-25h250V225z" fill="#ecf0f1" stroke-width="none" opacity="1"></path></g><g id="svga-group-subwrapper" transform="matrix(0.89999969 0 0 0.89999969 9.98619869794183 11.500698646440043)"><g id="svga-group-hair-back" ><path id="SvgjsPath3689" d="M100.5,100.5h-1v-1h1V100.5z" fill="#2a232b" stroke-width="none" opacity="1"></path></g><g id="svga-group-humanbody-single"><path id="SvgjsPath2893" d="M195.417 199.778c-2.196-4.746-8.195-11.779-14.86-13.722 -8.239-2.403-26.837-5.308-33.733-6.923 -5.528-1.296-16.662-11.294-20.564-14.65 -0.7-0.6-1.273-1.839-1.287-2.76 -0.139-10.864 4.195-39.724 4.195-39.724H100 70.833c0 0 4.334 28.859 4.193 39.724 -0.011 0.921-0.587 2.16-1.285 2.76 -3.902 3.356-15.036 13.354-20.564 14.65 -6.897 1.615-25.495 4.619-33.733 7.022 -6.667 1.942-12.664 8.876-14.86 13.622 -3.708 8.008-4.584 22.5-4.584 35h100 100C200 222.278 199.123 207.786 195.417 199.778z" fill="#daa488" stroke-width="none" opacity="1" stroke="none"></path><path id="SvgjsPath2894" d="M159.156 184.058c24.342 3.542 34.586 8.708 37.794 50.721H200c0-12.5-0.877-26.992-4.583-35 -2.196-4.746-8.195-11.779-14.86-13.722 -8.239-2.403-26.837-5.308-33.733-6.923 -5.528-1.296-18.242-12.069-21.643-16.35 3.36 4.704 12.791 15.605 21.054 18.46C150.188 182.61 153.48 183.232 159.156 184.058zM53.766 181.244c8.263-2.854 17.693-13.756 21.054-18.46 -3.4 4.28-16.114 15.054-21.643 16.35 -6.896 1.615-25.494 4.619-33.733 7.022 -6.665 1.942-12.664 8.876-14.86 13.622 -3.706 8.008-4.583 22.5-4.583 35h3.05c3.188-41.744 13.475-47.183 37.794-50.721C46.52 183.232 49.813 182.61 53.766 181.244z" fill="#e9bfa9" stroke-width="none" opacity="1" stroke="none"></path><path id="SvgjsPath2895" d="M95.646 197.62c0 0-5.074-1.609-7.083-2.379 -10.449-4.009-44.395-6.607-44.395-6.607s35.754 1.419 43.644 2.779c-0.458-4.767-3.017-20.004-3.017-20.004s5.149 16.815 6.409 21.057C91.878 194.734 95.646 197.62 95.646 197.62zM106.445 196.278c-0.089 0.073-0.191 0.168-0.302 0.268C106.256 196.461 106.358 196.372 106.445 196.278zM95.646 197.62c0 0 2.893 2.992 4.347 3.03 1.91 0.051 4.828-2.899 6.151-4.104 -1.265 0.957-4.159 1.391-5.31 1.436C99.504 198.033 95.646 197.62 95.646 197.62zM116.664 190.101c-1.545 0.248-4.386 0.789-4.386 0.789l2.287-14.89c-0.646 3.071-4.474 16.211-8.12 20.278 1.91-1.616 6.158-2.391 8.324-2.704 10.236-1.484 10.232-1.483 41.062-4.94C155.831 188.634 126.76 188.479 116.664 190.101z" fill="#cb8b6a" stroke-width="none" opacity="1" stroke="none"></path><path id="SvgjsPath2896" d="M195.417 199.778c-2.196-4.746-8.195-11.779-14.86-13.722 -8.239-2.403-26.837-5.308-33.733-6.923 -5.528-1.296-16.662-11.294-20.564-14.65 -0.7-0.6-1.273-1.839-1.287-2.76 -0.139-10.864 4.195-39.724 4.195-39.724H100 70.833c0 0 4.334 28.859 4.193 39.724 -0.011 0.921-0.587 2.16-1.285 2.76 -3.902 3.356-15.036 13.354-20.564 14.65 -6.897 1.615-25.495 4.619-33.733 7.022 -6.667 1.942-12.664 8.876-14.86 13.622 -3.708 8.008-4.584 22.5-4.584 35h100 100C200 222.278 199.123 207.786 195.417 199.778z" fill="none" stroke="#ac5f38" stroke-width="1.5" opacity="1"></path></g><g id="svga-group-chinshadow-single"><path id="SvgjsPath3638" d="M124.272 162.248c-0.028-0.175-0.048-0.349-0.051-0.515 -0.094-7.38 1.819-22.721 3.098-32.078 -15.699-1.984-38.937-1.975-54.637 0.016 1.279 9.359 3.19 24.687 3.094 32.062 -0.001 0.119-0.014 0.243-0.03 0.367 3.825 3.586 7.667 6.528 11.055 8.151 5.312 2.546 21.035 2.427 26.401 0C116.613 168.71 120.456 165.812 124.272 162.248z" fill="url(#SvgjsLinearGradient3639)" opacity="1"></path></g><g id="svga-group-clothes-single" ><path id="SvgjsPath3417" d="M111.806 235.888c-19.135 0-41.455-0.074-68.233-0.229l-23.679-0.128c-14.298-0.078-15.141-0.094-16.887-0.094l-4.899 0.007c-4.571-41.875 14.41-52.87 43.762-56.708 7.789-1.097 15.449-3.097 21.459-6.972 16.327 22.243 64.811 17.562 73.103-0.629 1.39 0.53 2.539 1.215 3.977 1.734 4.666 3.433 11.072 5.836 17.628 6.199 26.008 1.441 44.419 12.996 44.057 54.64 0.003 0.165 0.004 1.175-0.013 1.49 -12.513 0-17.206 0.121-27.034 0.262 -13.331 0.19-29.923 0.427-63.229 0.427C111.813 235.888 111.81 235.888 111.806 235.888z" fill="#386e77" stroke-width="none" opacity="1"></path><path id="SvgjsPath3418" d="M201.055 234.64c-0.41-7.385-4.064-28.058-10.36-37.541 -12.482-18.805-42.26-12.206-49.132-19.693 -4.986 10.159-24.975 16.595-31.594 17.54 19.181-6.36 27.237-10.959 30.42-21.87 6.405 8.33 41.074 1.971 54.717 24.331C199.101 203.954 202.9 224.793 201.055 234.64zM55.811 177.628c1.357-0.315 2.034-1.249 3.381-1.614l-1.426-1.891c-9.049 7.052-42.909 2.645-54.519 24.036 -3.659 6.741-6.127 22.788-4.192 36.439 0.537-8.384 0.799-26.314 7.095-35.798 11.324-17.06 31.974-12.553 47.619-19.775 6.983 8.6 17.888 12.828 28.984 14.577C68.832 189.971 60.85 183.84 55.811 177.628z" fill="#4d7e86" stroke-width="none" opacity="1"></path><path id="SvgjsPath3419" d="M135.31 173.244c-5.532 11.514-47.35 24.923-70.93 0.879 -1.466 0.622-5.852 2.112-5.852 2.112 17.176 23.386 67.511 23.534 80.909-0.114C139.378 176.098 136.672 173.936 135.31 173.244z" fill="#265e68" stroke-width="none" opacity="1"></path><path id="SvgjsPath3420" d="M136.38 171.002c-9.413 18.822-58.397 21.485-73.012 0.632 -5.337 1.578-10.469 4.941-15.636 5.782C16.812 182.021-6.046 184.335-2 235.552c9.94 0-6.611-0.065 45.571 0.215 123.59 0.71 119.562-0.461 158.606-0.461 0.029-0.14 0.015-1.452 0.021-1.596 2.096-56.436-30.852-53.104-53.12-56.995 -3.144-0.718-6.066-2.773-8.635-3.945C139.024 172.121 137.818 171.538 136.38 171.002zM63.014 172.265c12.974 23.392 64.219 18.699 74.113 0.101 1.2 0.504 1.507 0.704 2.898 1.197 -10.248 21.489-60.942 28.337-81.677 1.163C58.494 174.685 61.552 172.813 63.014 172.265zM-0.845 234.778c-2.421-26.431 1.797-48.043 32.78-53.345 10.276-1.896 16.557-1.962 25.384-5.794 16.763 27.405 72.098 23.158 83.598-1.305 1.652 1.409 4.228 3.03 7.405 3.785 18.098 4.299 54.838-0.894 52.898 56.658C147.163 234.075 102.355 232.433-0.845 234.778z" fill="#0c4049" stroke-width="none" opacity="1"></path></g><g id="svga-group-head" ><g id="svga-group-ears-left" ><path id="SvgjsPath3631" d="M47.34 82.506c-1.378-2.405-9.403-6.675-11.855-6.501 -4.229 0.299-5.137 5.269-5.446 7.648 -0.609 4.696 0.645 10 1.485 13.201 0.687 2.615 2.874 7.578 4.214 9.883 1.197 2.062 4.145 5.792 5.733 7.525 1.398 1.529 4.73 4.311 7.248 3.632 2.769-0.744 6.015-3.945 6.239-5.312C56.165 105.172 50.926 88.763 47.34 82.506z" fill="#daa488" stroke="#ac5f38" stroke-width="1.5" opacity="1"></path><path id="SvgjsPath3632" d="M42.903 99.38c-0.142-0.584 0.007-1.569 0.151-2.521 0.131-0.868 0.255-1.686 0.18-2.265 -0.284-2.169-1.888-6.29-2.936-8.524 -1.206-2.568-3.157-5.803-5.602-6.639 -1.011-0.346-2.073-0.522-2.145-0.241 -0.611 1.943-0.563 7.341-0.212 11.338 0.987 11.242 10.375 19.34 11.872 21.045 0.276 0.314 0.566 0.501 0.637 0.426 0.072-0.076-0.1-0.388-0.375-0.704 -1.477-1.692-8.314-8.684-9.27-13.098 -1.012-4.685 3-12.386 3.776-13.855 0.397 0.69 0.732 1.352 0.991 1.904 0.204 0.434 0.429 0.941 0.66 1.489 -0.456 0.767-3.656 6.36-2.489 10.836 0.431 1.651 2.379 3.778 3.67 4.362 0.71 0.321 0.978 0.801 1.287 1.355 0.359 0.645 0.765 1.374 1.946 1.903 0.24 0.108 0.457 0.151 0.649 0.151 0.333 0 0.586-0.135 0.773-0.295 0.019 0.282-0.349 2.52-0.357 2.853 -0.012 0.431 0.045 0.787 0.146 0.796 0.101 0.008 0.207-0.334 0.221-0.766 0.016-0.529 0.379-3.061 0.289-3.372 -0.264-0.923-1.073-1.964-1.93-3.068C43.994 101.407 43.122 100.284 42.903 99.38zM34.428 95.416c-2.316-7.184 1.456-13.479 1.977-14.464 0.906 0.826 1.704 1.932 2.354 3.015C38.286 84.83 34.526 90.584 34.428 95.416zM45.187 105.831c-1.069-0.479-1.427-1.12-1.774-1.742 -0.313-0.562-0.637-1.143-1.458-1.515 -0.179-0.082-0.375-0.204-0.576-0.346 -2.646-6.304 0.289-9.059 1.025-9.625 0.226 0.771 0.394 1.478 0.468 2.045 0.067 0.521-0.058 1.348-0.179 2.148 -0.149 0.992-0.305 2.018-0.144 2.681 0.239 0.989 1.137 2.146 2.005 3.263 0.771 0.993 1.562 2.015 1.832 2.849C46.271 105.757 45.905 106.155 45.187 105.831z" fill="#ac5f38" stroke-width="none" opacity="1"></path></g><g id="svga-group-ears-right" ><path id="SvgjsPath3633" d="M152.398 82.506c1.377-2.405 9.402-6.675 11.855-6.501 4.229 0.299 5.137 5.269 5.445 7.648 0.609 4.696-0.645 10-1.484 13.201 -0.688 2.615-2.875 7.578-4.215 9.883 -1.197 2.062-4.145 5.792-5.732 7.525 -1.398 1.529-4.73 4.311-7.248 3.632 -2.77-0.744-6.016-3.945-6.238-5.312C143.574 105.172 148.813 88.763 152.398 82.506z" fill="#daa488" stroke="#ac5f38" stroke-width="1.5" opacity="1"></path><path id="SvgjsPath3634" d="M154.902 102.491c-0.855 1.104-1.666 2.146-1.93 3.068 -0.09 0.312 0.273 2.843 0.289 3.372 0.014 0.432 0.119 0.773 0.221 0.766 0.102-0.009 0.158-0.365 0.146-0.796 -0.01-0.333-0.377-2.57-0.357-2.853 0.188 0.16 0.439 0.295 0.771 0.295 0.193 0 0.41-0.043 0.65-0.151 1.182-0.53 1.588-1.259 1.945-1.903 0.311-0.555 0.578-1.034 1.287-1.355 1.291-0.584 3.24-2.711 3.67-4.362 1.168-4.476-2.031-10.07-2.488-10.836 0.23-0.548 0.457-1.056 0.66-1.489 0.26-0.552 0.594-1.214 0.99-1.904 0.777 1.469 4.789 9.17 3.777 13.855 -0.955 4.415-7.793 11.406-9.27 13.098 -0.275 0.316-0.447 0.628-0.375 0.704 0.072 0.075 0.361-0.111 0.637-0.426 1.498-1.705 10.885-9.803 11.873-21.045 0.35-3.997 0.396-9.395-0.213-11.338 -0.072-0.281-1.135-0.104-2.145 0.241 -2.445 0.836-4.396 4.071-5.604 6.639 -1.047 2.234-2.65 6.354-2.936 8.524 -0.076 0.579 0.049 1.397 0.18 2.265 0.145 0.951 0.293 1.936 0.15 2.521C156.617 100.284 155.744 101.407 154.902 102.491zM160.979 83.966c0.65-1.083 1.449-2.188 2.355-3.015 0.52 0.986 4.291 7.28 1.977 14.464C165.211 90.584 161.453 84.83 160.979 83.966zM153.352 105.59c0.271-0.834 1.063-1.856 1.832-2.849 0.869-1.118 1.766-2.274 2.006-3.263 0.16-0.663 0.006-1.689-0.145-2.681 -0.121-0.8-0.246-1.627-0.178-2.148 0.074-0.567 0.242-1.273 0.467-2.045 0.736 0.566 3.672 3.321 1.025 9.625 -0.201 0.142-0.396 0.264-0.576 0.346 -0.82 0.372-1.145 0.953-1.457 1.515 -0.348 0.622-0.705 1.263-1.775 1.742C153.834 106.155 153.467 105.757 153.352 105.59z" fill="#ac5f38" stroke-width="none" opacity="1"></path></g><g id="svga-group-faceshape-wrap" ><g id="svga-group-faceshape-single" ><path id="SvgjsPath3635" d="M144.004 126.997c-5.003 10.225-20.047 28.437-30.801 33.266 -5.366 2.412-21.089 2.53-26.401 0 -10.646-5.067-25.765-23.057-30.801-33.266C50.388 115.623 41.15 78.444 41.138 78.39c-1.3-4.988-1.996-10.225-2.004-15.623 -0.052-34 27.154-61.598 60.772-61.65 33.621-0.053 60.913 27.457 60.963 61.456 0.009 5.4-0.669 10.638-1.952 15.631C158.901 78.256 149.6 115.559 144.004 126.997z" fill="#daa488" stroke-width="none" opacity="1"></path><path id="SvgjsPath3636" d="M110.152 1.982c26.994 6.338 47.097 30.814 47.052 60.039 -0.009 5.399-0.704 10.635-2.004 15.624 -0.012 0.054-8.61 37.245-14.13 48.608 -4.859 10.004-19.7 27.468-30.067 32.521 -2.163 1.055-8.694 1.555-11.001 1.555 -2.307 0-8.837-0.5-11-1.555 -10.367-5.053-25.209-22.517-30.067-32.521 -5.521-11.363-14.119-48.554-14.13-48.608 -1.3-4.988-1.996-10.225-2.004-15.624C42.756 32.796 62.857 8.32 89.853 1.982 61.03 6.877 39.087 32.232 39.134 62.767c0.008 5.398 0.704 10.635 2.004 15.623 0.012 0.054 9.232 37.241 14.863 48.607 5.052 10.199 20.207 28.085 30.801 33.266 2.658 1.301 9.305 1.855 12.954 1.853 3.646 0.003 10.791-0.552 13.447-1.853 10.594-5.182 25.748-23.066 30.801-33.266 5.631-11.366 14.852-48.553 14.862-48.607 1.3-4.988 1.996-10.225 2.004-15.623C160.918 32.232 138.975 6.877 110.152 1.982z" fill="#d29779" stroke-width="none" opacity="1"></path><path id="SvgjsPath3637" d="M144.004 126.997c-5.003 10.225-20.047 28.437-30.801 33.266 -5.366 2.412-21.089 2.53-26.401 0 -10.646-5.067-25.765-23.057-30.801-33.266C50.388 115.623 41.15 78.444 41.138 78.39c-1.3-4.988-1.996-10.225-2.004-15.623 -0.052-34 27.154-61.598 60.772-61.65 33.621-0.053 60.913 27.457 60.963 61.456 0.009 5.4-0.669 10.638-1.952 15.631C158.901 78.256 149.6 115.559 144.004 126.997z" fill="none" stroke="#ac5f38" stroke-width="1.5" opacity="1"></path></g></g><g id="svga-group-mouth-single" ><path id="SvgjsPath3685" d="M100.34 141.925c-1.526 0-2.998-0.193-3.9-0.547 -0.257-0.102-0.384-0.392-0.283-0.648 0.101-0.257 0.39-0.383 0.648-0.283 1.664 0.653 5.855 0.676 7.704-0.193 0.251-0.117 0.548-0.01 0.665 0.239 0.118 0.25 0.011 0.548-0.239 0.665C103.815 141.684 102.044 141.925 100.34 141.925zM115.025 133.444c0.398-0.171 0.584-0.632 0.413-1.031s-0.635-0.583-1.031-0.413c-11.666 4.992-28.742 0.338-28.912 0.292 -0.417-0.116-0.852 0.127-0.968 0.546 -0.116 0.418 0.128 0.851 0.546 0.968 0.463 0.128 7.692 2.1 16.034 2.1C105.727 135.905 110.685 135.301 115.025 133.444z" fill="#ac5f38" stroke-width="none" opacity="1"></path></g><g id="svga-group-eyes-left" ><g id="svga-group-eyesback-left"><path id="SvgjsPath3429" d="M61.752 82.523c-0.506-2.285 5.191-3.973 12.711-3.051 7.518 0.923 12.738 5.524 12.052 7.844 -0.38 1.286-10.639 3.245-14.253 2.847C68.598 89.758 62.974 88.04 61.752 82.523z" fill="url(#SvgjsRadialGradient3430)" opacity="1"></path></g><g id="svga-group-eyesiriswrapper-left" transform="translate(0.25 0.25)"><g id="svga-group-eyesiriscontrol-left" ><g id="svga-group-eyesiris-left" ><path id="SvgjsPath3539" d="M80 84c0 3.313-2.687 5.999-6 5.999S68 87.313 68 84c0-3.316 2.687-6.001 6-6.001S80 80.685 80 84z" fill="#131514" stroke-width="none" opacity="1" stroke="none"></path><path id="SvgjsPath3540" d="M70.512 86.805c0.875-0.072 0.1-0.306 0.1-0.306 -0.433-0.233-1.248-0.592-1.248-0.921 0-1.031 1.414-1.299-0.034-1.705 -1.504-1.38 1.167-1.352 1.147-1.398 -0.975-2.376 0.299-1.071 0.835-1.773 1.988-2.599 0.554 0.267 1.633 0 0.391-0.096-0.78-1.531 0.034-1.33 0.539 0.132 0.662 0.58 0.662 0.58 0.393-0.077 1.008-0.682 1.008-0.682 0.749 0.226 1.275 1.29 1.043 1.091 0.368-0.045 0.884-0.221 1.286-0.341 0 0 0.07-0.239 0.139-0.033 0.917 2.661 3.284 2.47 0.559 3.24 0 0-0.176 0 0.382 0.442 2.71 2.164-2.102 1.495 0.451 2.49 0.104-0.104-1.53 0.965-1.53 1.261 0 0.501-1.042 1.818-1.946 1.3 -0.504-0.288-0.581 0.6-0.877 0.19 -0.581-0.803-1.742-0.035-1.313-0.773 0.634-0.521-0.654 0.204-0.904 0.204 -0.828 0 1.083-2.783 3.894-0.715 0.822 0.602-0.864-1.433 0.625-1.433 0.149 0.049 0.104-0.521 0.104-0.682 -0.774-0.151 1.39-0.003 1.39-1.262 0.137 0.027 0.509-0.35-1.635 0 0 0-0.068-0.75-0.034-0.886 0.11-0.438 1.214-0.298 0.904-0.75 0-0.001-0.799-1.604-0.799-1.604 -2.573-0.414-1.102-0.672-2.711-0.341 -0.076 0.378-3.445 1.984-3.338 2.729 0.1 0.702 2.115 0.938 0.208 2.182C73.405 91.051 68.437 85.454 70.512 86.805z" fill="#242424" stroke-width="none" opacity="1" stroke="none"></path><path id="SvgjsPath3541" d="M74 78.749l0.171 4.393 1.837-3.993 -1.523 4.123 3.227-2.985 -2.985 3.226 4.124-1.523 -3.992 1.839 4.392 0.17 -4.392 0.17 3.992 1.839 -4.124-1.523 2.985 3.226 -3.227-2.985 1.523 4.123 -1.837-3.993L74 89.249l-0.171-4.393 -1.838 3.993 1.522-4.123 -3.226 2.985 2.985-3.226 -4.124 1.523 3.992-1.839 -4.39-0.17 4.39-0.17 -3.992-1.839 4.124 1.523 -2.985-3.226 3.226 2.985 -1.522-4.123 1.838 3.993L74 78.749z" fill="#000000" stroke-width="none" opacity="1" stroke="none"></path><path id="SvgjsPath3542" d="M74.796 80.067l-0.539 3.315 1.981-2.711 -1.766 2.857 2.87-1.748 -2.725 1.964 3.319-0.515L74.668 84l3.266 0.794 -3.317-0.538 2.712 1.982 -2.858-1.765 1.748 2.869 -1.964-2.725 0.516 3.319 -0.771-3.27 -0.795 3.264 0.539-3.315 -1.984 2.711 1.768-2.857 -2.869 1.748 2.725-1.964 -3.319 0.516 3.269-0.771 -3.264-0.793 3.315 0.537 -2.712-1.982 2.858 1.765 -1.747-2.869 1.964 2.725 -0.516-3.318 0.772 3.27L74.796 80.067z" fill="#000000" stroke-width="none" opacity="1" stroke="none"></path><path id="SvgjsPath3543" d="M76.25 84c0 1.243-1.008 2.25-2.25 2.25s-2.25-1.007-2.25-2.25 1.008-2.25 2.25-2.25S76.25 82.757 76.25 84z" fill="#000000" stroke-width="none" opacity="0.9"></path><path id="SvgjsPath3544" d="M71.637 88.311c-0.331 0.332-0.985 0.215-1.46-0.261 -0.476-0.475-0.593-1.129-0.261-1.461 0.331-0.331 0.985-0.214 1.46 0.261C71.852 87.326 71.969 87.979 71.637 88.311z" fill="#ffffff" stroke-width="none" opacity="0.7"></path><path id="SvgjsPath3545" d="M78.806 82.818c-0.496 0.496-1.697 0.1-2.682-0.886 -0.986-0.986-1.382-2.187-0.886-2.683 0.496-0.496 1.697-0.1 2.682 0.886C78.906 81.122 79.302 82.322 78.806 82.818z" fill="#ffffff" stroke-width="none" opacity="0.9"></path></g></g></g><g id="svga-group-eyesfront-left"><path id="SvgjsPath3451" d="M53.294 83c0.809 10.899 11.637 23.583 20.506 22.236 10.498 0.106 20.864-7.868 20.864-22.305s-5.087-26.528-21.127-26.528C62.037 56.402 53.294 68.563 53.294 83zM61.752 82.523c-0.506-2.285 5.191-3.973 12.711-3.051 7.518 0.923 12.738 5.524 12.052 7.844 -0.38 1.286-10.639 3.245-14.253 2.847C68.598 89.758 62.974 88.04 61.752 82.523z" fill="#daa488" stroke-width="none" opacity="1"></path><path id="SvgjsPath3452" d="M72.262 90.163c3.614 0.398 13.873-1.561 14.253-2.847 0.687-2.32-4.534-6.921-12.052-7.844C68.003 78.68 62.9 79.816 61.907 81.6c0.898-6.4 7.7-11.397 15.987-11.434 8.911-0.037 16.148 5.676 16.172 12.765 0.021 7.088-7.185 12.862-16.095 12.902 -8.913 0.037-16.149-5.676-16.173-12.764 0-0.105 0.016-0.208 0.019-0.313C63.147 88.083 68.651 89.764 72.262 90.163z" fill="url(#SvgjsRadialGradient3453)" opacity="1"></path><path id="SvgjsPath3457" d="M61.752 82.523c-0.506-2.285 5.191-3.973 12.711-3.051 7.518 0.923 12.738 5.524 12.052 7.844 -0.38 1.286-10.639 3.245-14.253 2.847C68.598 89.758 62.974 88.04 61.752 82.523z" fill="url(#SvgjsRadialGradient3458)" opacity="1"></path><path id="SvgjsPath3461" d="M62.148 77.417c4.208-1.978 9.35-2.16 13.838-1.005 2.404 0.561 4.965 1.285 7.063 2.638 1.945 1.135 3.525 2.5 5.002 4.19 -1.342-1.701-2.773-3.118-4.623-4.27 -2.276-1.416-4.769-2.294-7.364-2.916C71.478 74.928 66.342 75.184 62.148 77.417z" fill="#ac5f38" stroke-width="none" opacity="1"></path><path id="SvgjsPath3462" d="M62.769 78.02c0.88-0.352 4.065-1 5.456-1.066 1.687-0.082 5.073 0.125 6.735 0.424 3.374 0.608 9.251 2.483 11.678 7.184 0.746 1.445 0.074 2.456-0.123 2.675 0.3-2.426-4.838-6.746-12.052-7.604 -7.52-0.894-13.217 0.743-12.711 2.958 1.222 5.348 6.846 7.013 10.51 7.405 4.099 0.439 11.684-1.539 12.686-1.753 -1.999 1.009-7.524 2.095-9.767 2.303 -0.744 0.07-2.24 0.104-2.986 0.085 -5.949-0.158-10.169-3.175-11.729-7.26C59.464 80.745 60.56 78.902 62.769 78.02z" fill="#000000" stroke-width="none" opacity="1"></path></g></g><g id="svga-group-eyes-right" ><g id="svga-group-eyesback-right"><path id="SvgjsPath3436" d="M137.849 82.523c0.506-2.285-5.191-3.973-12.711-3.051 -7.518 0.923-12.738 5.524-12.052 7.844 0.38 1.286 10.639 3.245 14.253 2.847C131.003 89.758 136.627 88.04 137.849 82.523z" fill="url(#SvgjsRadialGradient3437)" opacity="1"></path></g><g id="svga-group-eyesiriswrapper-right" transform="translate(-0.25 0.25)"><g id="svga-group-eyesiriscontrol-right" ><g id="svga-group-eyesiris-right" ><path id="SvgjsPath3546" d="M132,83.999c0,3.316-2.684,6-6,6s-6-2.684-6-6s2.684-6,6-6S132,80.683,132,83.999z" fill="#131514" stroke-width="none" opacity="1" stroke="none"></path><path id="SvgjsPath3547" d="M122.508 86.806c0.879-0.076 0.105-0.305 0.105-0.305 -0.434-0.234-1.254-0.592-1.254-0.926 0-1.031 1.418-1.295-0.023-1.705 -1.512-1.377 1.16-1.348 1.137-1.395 -0.973-2.379 0.305-1.072 0.844-1.775 1.98-2.596 0.551 0.27 1.629 0 0.387-0.094-0.785-1.529 0.035-1.33 0.539 0.135 0.656 0.58 0.656 0.58 0.398-0.076 1.008-0.68 1.008-0.68 0.75 0.223 1.277 1.289 1.043 1.09 0.375-0.047 0.891-0.223 1.289-0.34 0 0 0.07-0.24 0.141-0.035 0.914 2.66 3.281 2.473 0.563 3.24 0 0-0.176 0 0.375 0.439 2.707 2.168-2.098 1.494 0.457 2.49 0.105-0.1-1.535 0.967-1.535 1.266 0 0.498-1.043 1.816-1.945 1.295 -0.504-0.287-0.586 0.604-0.879 0.193 -0.574-0.803-1.746-0.035-1.313-0.773 0.633-0.521-0.656 0.205-0.902 0.205 -0.832 0 1.078-2.783 3.891-0.715 0.82 0.598-0.867-1.436 0.633-1.436 0.141 0.047 0.105-0.521 0.105-0.68 -0.785-0.152 1.383-0.006 1.383-1.266 0.141 0.029 0.516-0.346-1.629 0 0 0-0.07-0.75-0.035-0.885 0.105-0.439 1.207-0.299 0.902-0.75l-0.797-1.605c-2.578-0.41-1.102-0.668-2.719-0.34 -0.07 0.381-3.445 1.986-3.34 2.73 0.105 0.703 2.121 0.938 0.211 2.18C125.402 91.054 120.434 85.452 122.508 86.806z" fill="#242424" stroke-width="none" opacity="1" stroke="none"></path><path id="SvgjsPath3548" d="M126 78.749l0.176 4.395 1.828-3.996 -1.523 4.125 3.234-2.988 -2.988 3.229 4.125-1.523 -3.996 1.84 4.395 0.17 -4.395 0.17 3.996 1.84 -4.125-1.523 2.988 3.229 -3.234-2.988 1.523 4.125 -1.828-3.996L126 89.249l-0.176-4.395 -1.84 3.996 1.523-4.125 -3.223 2.988 2.988-3.229 -4.125 1.523 3.996-1.84 -4.395-0.17 4.395-0.17 -3.996-1.84 4.125 1.523 -2.988-3.229 3.223 2.988 -1.523-4.125 1.84 3.996L126 78.749z" fill="#000000" stroke-width="none" opacity="1" stroke="none"></path><path id="SvgjsPath3549" d="M126.797 80.067l-0.539 3.316 1.98-2.713 -1.77 2.859 2.871-1.752 -2.719 1.969 3.316-0.516 -3.27 0.768 3.27 0.797 -3.316-0.539 2.707 1.98 -2.859-1.764 1.746 2.871 -1.957-2.725 0.516 3.316L126 84.667l-0.797 3.264 0.539-3.316 -1.98 2.713 1.77-2.859 -2.871 1.752 2.719-1.969 -3.316 0.516 3.27-0.768 -3.27-0.797 3.316 0.539 -2.707-1.98 2.859 1.764 -1.746-2.871 1.957 2.725 -0.516-3.316 0.773 3.27L126.797 80.067z" fill="#000000" stroke-width="none" opacity="1" stroke="none"></path><path id="SvgjsPath3550" d="M128.25 83.999c0 1.242-1.008 2.25-2.25 2.25s-2.25-1.008-2.25-2.25 1.008-2.25 2.25-2.25S128.25 82.757 128.25 83.999z" fill="#000000" stroke-width="none" opacity="0.9"></path><path id="SvgjsPath3551" d="M123.633 88.312c-0.328 0.328-0.984 0.217-1.453-0.264 -0.48-0.475-0.598-1.125-0.258-1.459 0.328-0.328 0.984-0.211 1.453 0.264C123.855 87.327 123.973 87.978 123.633 88.312z" fill="#ffffff" stroke-width="none" opacity="0.7"></path><path id="SvgjsPath3552" d="M130.805 82.815c-0.492 0.498-1.699 0.105-2.684-0.885 -0.984-0.984-1.383-2.186-0.879-2.678 0.492-0.498 1.688-0.105 2.672 0.885C130.91 81.122 131.297 82.323 130.805 82.815z" fill="#ffffff" stroke-width="none" opacity="0.9"></path></g></g></g><g id="svga-group-eyesfront-right"><path id="SvgjsPath3471" d="M126.063 56.402c-16.04 0-21.127 12.091-21.127 26.528s10.366 22.412 20.864 22.305c8.869 1.347 19.697-11.337 20.506-22.236C146.307 68.563 137.563 56.402 126.063 56.402zM127.339 90.163c-3.614 0.398-13.873-1.561-14.253-2.847 -0.687-2.32 4.534-6.921 12.052-7.844 7.52-0.922 13.217 0.767 12.711 3.051C136.627 88.04 131.003 89.758 127.339 90.163z" fill="#daa488" stroke-width="none" opacity="1"></path><path id="SvgjsPath3472" d="M127.339 90.163c-3.614 0.398-13.873-1.561-14.253-2.847 -0.687-2.32 4.534-6.921 12.052-7.844 6.46-0.792 11.563 0.345 12.556 2.128 -0.898-6.4-7.7-11.397-15.987-11.434 -8.911-0.037-16.148 5.676-16.172 12.765 -0.021 7.088 7.185 12.862 16.095 12.902 8.913 0.037 16.149-5.676 16.173-12.764 0-0.105-0.016-0.208-0.019-0.313C136.453 88.083 130.949 89.764 127.339 90.163z" fill="url(#SvgjsRadialGradient3473)" opacity="1"></path><path id="SvgjsPath3477" d="M137.849 82.523c0.506-2.285-5.191-3.973-12.711-3.051 -7.518 0.923-12.738 5.524-12.052 7.844 0.38 1.286 10.639 3.245 14.253 2.847C131.003 89.758 136.627 88.04 137.849 82.523z" fill="url(#SvgjsRadialGradient3478)" opacity="1"></path><path id="SvgjsPath3481" d="M137.452 77.417c-4.208-1.978-9.35-2.16-13.838-1.005 -2.404 0.561-4.965 1.285-7.063 2.638 -1.945 1.135-3.525 2.5-5.002 4.19 1.342-1.701 2.773-3.118 4.623-4.27 2.276-1.416 4.769-2.294 7.364-2.916C128.123 74.928 133.259 75.184 137.452 77.417z" fill="#ac5f38" stroke-width="none" opacity="1"></path><path id="SvgjsPath3482" d="M136.832 78.02c-0.88-0.352-4.065-1-5.456-1.066 -1.687-0.082-5.073 0.125-6.735 0.424 -3.374 0.608-9.251 2.483-11.678 7.184 -0.746 1.445-0.074 2.456 0.123 2.675 -0.3-2.426 4.838-6.746 12.052-7.604 7.52-0.894 13.217 0.743 12.711 2.958 -1.222 5.348-6.846 7.013-10.51 7.405 -4.099 0.439-11.684-1.539-12.686-1.753 1.999 1.009 7.524 2.095 9.767 2.303 0.744 0.07 2.24 0.104 2.986 0.085 5.949-0.158 10.169-3.175 11.729-7.26C140.137 80.745 139.041 78.902 136.832 78.02z" fill="#000000" stroke-width="none" opacity="1"></path></g></g><g id="svga-group-facehighlight-single" ><path id="SvgjsPath2885" d="M141 113.974c0.035 22.622-18.292 40.994-40.938 41.025 -22.642 0.037-41.028-18.273-41.063-40.9 -0.035-22.62 18.292-41.064 40.937-41.1C122.579 72.964 140.967 91.349 141 113.974z" fill="url(#SvgjsRadialGradient2886)" opacity="1"></path><path id="SvgjsPath2889" d="M137.5 53.999c0 20.711-16.789 37.5-37.499 37.5 -20.711 0-37.501-16.789-37.501-37.5s16.79-37.5 37.501-37.5C120.711 16.499 137.5 33.288 137.5 53.999z" fill="url(#SvgjsRadialGradient2890)" opacity="1"></path></g><g id="svga-group-eyebrows-left" ><path id="SvgjsPath3201" d="M54 74.189c9.954-9.974 16.761-5.915 30.589-3.264 0.845 0.162 6.32 1.539 5.31 3.469 -0.483 0.924-2.036 0.814-2.903 0.798C73.308 74.936 66.652 65.197 54 74.189z" fill="#2a232b" stroke-width="none" opacity="1"></path></g><g id="svga-group-eyebrows-right" ><path id="SvgjsPath3202" d="M146 74.189c-9.953-9.974-16.761-5.915-30.589-3.264 -0.846 0.162-6.32 1.539-5.311 3.469 0.483 0.924 2.036 0.814 2.903 0.798C126.691 74.936 133.348 65.197 146 74.189z" fill="#2a232b" stroke-width="none" opacity="1"></path></g><g id="svga-group-nose-single" ><path id="SvgjsPath3624" d="M91.115 115.499c-0.878 2.064 5.934 4.292 8.519 4.429 2.8 0.147 10.646-2.9 9.316-4.992 -1.399-2.195-6.643-0.286-8.906-0.286C97.792 114.649 92.291 112.745 91.115 115.499z" fill="#cb8b6a" stroke-width="none" opacity="1"></path><path id="SvgjsPath3625" d="M101.857 117.058c-0.23-0.759 1.876-1.584 2.657-1.694 1.101-0.16 3.36 0.802 3.158 1.592 -0.184 0.698-2.148-0.533-2.86-0.429C104.078 116.634 102.075 117.769 101.857 117.058zM94.974 116.811c0.968 0 2.404 0.623 2.668 0.074 0.315-0.655-2.139-1.461-2.86-1.372 -0.596 0.07-2.733 1.315-2.439 1.839C92.617 117.833 93.698 116.811 94.974 116.811z" fill="#ac5f38" stroke-width="none" opacity="1"></path><path id="SvgjsPath3626" d="M100.089 111.999c0.607 0 1.742-0.74 1.792-2.23 0.201-6.008-0.956-23.833-1.792-23.77 -0.78 0.059-2.267 17.637-1.948 23.77C98.22 111.271 99.404 111.999 100.089 111.999z" fill="#f9dccd" stroke-width="none" opacity="0.2"></path></g><g id="svga-group-beardwrap" ><g id="svga-group-beard-single" ><path id="SvgjsPath3745" d="M72.42 160.26c-5.81-3.72-13.18-11.11-15.9-14.77 -7.66-9.79-4.66-17.95-8.53-35.15 -1.98-7.5-5.26-18.5-5.66-21.25 0.92 0.14 5.78 0.8 6.6 0.93 1.2 9.39 11.79 16.08 13.6 35.39 1.59 12.14 7.59 18.02 17.41 24.08 4.16 2.58 12.18 6.78 14.08 2.24 1.54-3.67-1.1-11.12 5.3-12.33 1.33-0.24 4.18 0.28 5.27 2.75 1.75 3.96-0.91 11.56 4.76 11.56 5.88 0 16.02-7.55 18.85-10.16 11.11-9.12 7.48-20.17 12.58-32.27 5.89-13.04 7.72-11.36 10.27-21.27 0.69-0.07 5.9-0.83 6.6-0.92 -4.17 16.98-7.48 25.21-7.92 35.96 -0.79 15.97-5.59 21-16.37 30.85 -6.03 5.19-13.51 10.32-32.37 11.08C95.57 167.34 80.1 165.31 72.42 160.26z" fill="#2a232b" stroke-width="none" opacity="1"></path><path id="SvgjsPath3746" d="M95.38 142.31c0.62-1.45 1.76-2.59 3.93-3 1.36-0.24 4.28 0.3 5.38 2.81 0.04 0.08 0.06 0.17 0.09 0.25C103.09 143.86 100.5 152.4 95.38 142.31zM141 142c-8.07 14.34-22.56 22.25-38.44 22.3 -1.25 0.07-3.54 0.1-5.11 0C81.56 164.25 67.07 156.34 59 142c-9.23-13.84-7.39-31.09-14.91-45.45 1.19 4.32 2.7 9.59 3.81 13.82 3.87 17.19 0.87 25.38 8.55 35.19 2.81 3.78 10.16 11.1 15.92 14.79 7.31 4.8 21.46 6.87 27.63 6.78 6.17 0.09 20.33-1.97 27.63-6.78 5.76-3.69 13.11-11.01 15.92-14.79 7.68-9.81 4.68-18 8.55-35.19 1.11-4.23 2.62-9.5 3.81-13.82C148.39 110.91 150.23 128.16 141 142z" fill="#1b141c" stroke-width="none" opacity="1"></path><path id="SvgjsPath3747" d="M150.98 89.93c-2.55 9.97-4.37 8.25-10.28 21.33 -5.13 12.16-1.46 23.13-12.56 32.24 -2.78 2.56-14.58 11.41-20.12 9.97 -3.83-1.42-1.7-7.65-3.33-11.34 -1.1-2.51-4.02-3.05-5.38-2.81 -6.46 1.22-3.85 8.77-5.37 12.39 -1.87 4.45-9.86 0.24-13.94-2.29 -10.08-6.22-15.82-12.25-17.36-24.01 -1.82-19.41-12.46-26.06-13.61-35.47 -0.1-0.02-6.7-0.92-6.81-0.96 0.31 2.51 3.65 13.7 5.68 21.39 3.87 17.19 0.87 25.38 8.55 35.19 2.81 3.78 10.16 11.1 15.92 14.79 7.74 5.09 23.16 7.11 28.64 6.74 18.77-0.76 26.34-5.87 32.43-11.11 10.96-10.02 15.62-15.01 16.4-30.92 0.44-10.78 3.73-18.87 7.95-36.08C157.74 88.98 151.22 89.93 150.98 89.93zM148.16 124.87c-1.33 16.05-4.59 19.53-15.46 29.44 -7.73 6.67-15.89 10.48-32.74 11.68 -7.52-0.57-20.89-3.02-27.2-7.45 -6.56-4.44-13.32-11.94-15.07-14.32 -7.22-9.27-3.76-17.8-8.36-34.18 -3.01-9.46-4.51-12.5-6.94-20.78 1 0.14 3.37 0.62 6.56 0.93 1.35 10.67 10.52 15.97 12.17 35.34 0.35 2.32 0.77 6.86 4.03 12.27 1.66 2.8 3.82 5.3 5.7 6.85 5.59 5.16 24.18 17.39 24.44 4.11 0.04-3.62-0.46-8.59 4.72-9.35 8.73 1.24 1.26 13.05 7.76 15.11 6.22 1.75 27.12-8.89 30.41-24.98 1.7-6.03-0.87-10.33 8.5-28.01 2.48-4.5 3.69-6.57 4.38-11.34 1.23-0.12 5.73-0.7 6.56-0.94C153.92 101.69 148.85 113.11 148.16 124.87z" fill="#000000" stroke-width="none" opacity="1"></path></g></g><g id="svga-group-mustache-single" transform="translate(0 -1.0000002000000001)"><path id="SvgjsPath3715" d="M80.56 143.19c-7.87-11.92 1.64-21.9 10.5-21.9 3.27 0 5.65 1.63 8.98 1.65 3.11 0 6.01-1.58 9.11-1.49 6.34 0 14.64 5.28 13.09 13.41 -0.5 2.55-1.58 4.88-2.76 7.65 -2.9-13.79-9.32-10.74-21.95-11.35 -5.81-0.28-11.06-0.54-14.67 4.44C81.42 137.83 80.65 141.46 80.56 143.19" fill="#2a232b" stroke-width="none" opacity="1"></path><path id="SvgjsPath3716" d="M114.64 122.65c6.79 5.52 7.15 10.66 5.4 15.4 -0.54-6.99-7.47-13.3-20.26-10.03C86.98 124 80.33 131.2 79.7 138.9c-0.94-5.92 0.12-12.47 7.58-17.01 -7.52 2.33-13.72 11.17-6.62 21.62 0-1.41 0.73-5.43 2.29-7.85 3.98-5.49 9.98-4.55 16.6-4.3 9.78 0.62 16.95-2.77 19.86 11.28 0.01 0.08 0.03 0.15 0.05 0.22 0.08-0.18 0.16-0.38 0.25-0.59 0.04-0.1 0.09-0.2 0.13-0.31 0.97-2.27 2.02-4.56 2.51-7.06C123.48 128.87 119.34 124.62 114.64 122.65z" fill="#1b141c" stroke-width="none" opacity="1"></path><path id="SvgjsPath3717" d="M109.15 121.36c-3.11-0.11-6.08 1.52-9.23 1.48 -2.44-0.05-4.81-1.07-6.76-1.45 -9.31-1.81-21.46 8.97-12.51 22.12 0-1.41 0.73-5.43 2.29-7.85 3.98-5.49 9.98-4.55 16.6-4.3 9.78 0.62 16.95-2.77 19.86 11.28 0.01 0.08 0.03 0.15 0.05 0.22 0.08-0.18 0.16-0.38 0.25-0.59 0.04-0.1 0.09-0.2 0.13-0.31 0.97-2.27 2.02-4.56 2.51-7.06C123.93 126.52 115.3 121.36 109.15 121.36zM119.66 141.92c-1.54-14.71-12.16-11.49-20.06-11.91 -5.88-0.22-10.44-0.85-14.95 2.23 -3.33 2.74-4.26 6.2-4.26 10.61 -7.32-12.58 4.24-22.14 12.55-20.57 3.98 0.87 5.66 2.25 10.84 0.96 1.21-0.3 4.72-1.27 6.2-0.9 5.17 0.42 10.29 4.09 11.59 8.08C122.85 134.19 120.53 139.41 119.66 141.92z" fill="#000000" stroke-width="none" opacity="1"></path></g><g id="svga-group-hair-front" ><path id="SvgjsPath3691" d="M162.973 40.273C147.94-14.754 61.012-21.557 36.378 40.045c-11.02 27.558 15.94 73.711 15.94 73.711 -0.962-6.957-4.86-37.856-4.86-37.856 0-2 1.915-4.507 2.272-5.973 1.718-7.055-4.882-16.666-2.272-28.859 2.222-10.38 5.558-17.637 15.408-23.673 13.231-8.108 20.458 5.525 26.34 9.323 4.617 2.98 17.091 3.121 21.972 0.597 6.122-3.166 14.95-14.205 24.761-11.017 11.622 3.776 16.601 19.828 17.03 22.789 0.916 8.798-4.469 26.247-2.699 30.84 0.504 1.309 1.617 3.689 1.898 4.807 1.16 4.612-4.088 39.009-4.088 39.009S170.468 67.708 162.973 40.273z" fill="#2a232b" stroke-width="none" opacity="1"></path><path id="SvgjsPath3692" d="M137.697 13.5C127.979 8.857 119 17 110 23c-13.773 7.069-21-5-32-10 -9-5-21 3-28 12 -10.24 15.824-7.005 28.784-3.229 45.535 -3.841 3.196 2.723 27.464 5.036 39.4C50.406 99.271 47.458 75.9 47.458 75.9c0-0.415 0.096-0.854 0.229-1.299 0.511-1.699 1.76-3.512 2.042-4.674 1.718-7.055-4.882-16.666-2.272-28.859 2.222-10.38 5.558-17.637 15.408-23.673 13.231-8.108 20.458 5.525 26.34 9.323 4.617 2.98 17.091 3.121 21.972 0.597 6.122-3.166 14.95-14.205 24.761-11.017 11.622 3.776 16.601 19.828 17.03 22.789 0.916 8.798-4.469 26.247-2.699 30.84 0.504 1.309 1.617 3.689 1.898 4.807 0.037 0.146 0.066 0.323 0.091 0.527 0.001-0.016 0.003-0.032 0.005-0.047 0.54 4.834-2.166 24.674-3.489 33.824 3.99-18.04 8.449-34.593 4.355-41.351C156.869 45.402 161.567 24.902 137.697 13.5z" fill="#1b141c" stroke-width="none" opacity="1"></path><path id="SvgjsPath3693" d="M148.08 113.744c8.659-21.56 17.811-48.317 13.182-72.508 -1.357-4.808-3.467-12.578-12.334-22.463C115.737-18.332 59.483-6.218 39.958 35.8c-11.417 24.404-0.214 54.246 12.359 77.957 -11.042-19.293-16.693-32.944-18.75-54.101 -0.622-7.079 0.718-16.492 4.499-24.868 15.194-33.563 54.39-49.58 87.349-35.863 13.259 5.328 27.885 17.106 35.03 32.893 4.882 10.828 4.249 20.507 3.181 32.421 -0.771 6.491-3.043 16.094-3.617 17.865 -2.544 8.367-0.627 2.872-4.759 14.623C152.264 104.495 150.642 107.987 148.08 113.744z" fill="#000000" stroke-width="none" opacity="1"></path></g><g id="svga-group-glasses-single" ><path id="SvgjsPath3426" d="M52.7 78.99c11.69 3.22 28.34-0.15 40.03 7.14 -0.08 0.44-0.16 0.87-0.25 1.31 -0.64 2.91-3.23 4.82-6.36 5.38 -8.44 1.51-22.57 1.32-30.84 0.74 -1.19-0.08-2.16-0.9-2.36-2C52.11 87.2 51.8 83.54 52.7 78.99zM106.69 80.35c0.05 2.48 0.32 4.73 0.83 7.1 0.63 2.91 3.23 4.82 6.36 5.38 8.44 1.51 22.57 1.32 30.84 0.74 1.19-0.08 2.16-0.9 2.36-2 0.31-1.69 0.55-3.28 0.67-4.85 -11.7-8.04-28.85-4.44-40.84-7.71C106.77 79.44 106.68 79.89 106.69 80.35z" fill="#ffffff" stroke-width="none" opacity="0.2"></path><path id="SvgjsPath3427" d="M93.31 80.35c-0.05 2.02-0.24 3.88-0.58 5.78 -11.69-7.3-28.35-3.92-40.03-7.14 0.03-0.12 0.04-0.24 0.07-0.37 0.26-1.24 1.34-2.15 2.68-2.28 12.7-1.18 21.35-1.08 33.89-0.11C91.61 76.42 93.36 78.22 93.31 80.35zM147.24 78.63c-0.26-1.24-1.34-2.15-2.68-2.28 -12.7-1.18-21.35-1.08-33.89-0.11 -1.78 0.14-3.22 1.27-3.75 2.78 11.98 3.27 29.14-0.33 40.84 7.71C147.96 84.13 147.85 81.57 147.24 78.63z" fill="#ffffff" stroke-width="none" opacity="0.4"></path><path id="SvgjsPath3428" d="M153 78.74h-5.22c-0.02-0.07-0.02-0.14-0.04-0.21 -0.3-1.44-1.57-2.52-3.13-2.67 -12.9-1.2-21.6-1.07-33.98-0.11 -0.15 0.01-0.29 0.05-0.43 0.07l0.03-0.03c0 0-0.12 0.03-0.33 0.08 -0.09 0.02-0.19 0.04-0.28 0.06 -1.08 0.24-3.42 0.7-5.37 0.76 -3.91 0.12-4.75 0.11-8.5 0 -1.95-0.06-4.29-0.52-5.37-0.76 -0.09-0.03-0.18-0.04-0.28-0.06 -0.21-0.05-0.33-0.08-0.33-0.08l0.03 0.03c-0.14-0.02-0.28-0.06-0.43-0.07 -12.39-0.96-21.09-1.09-33.98 0.11 -1.56 0.15-2.83 1.23-3.13 2.67 -0.02 0.07-0.02 0.14-0.04 0.21H47v2.92h4.79c-0.17 1.7-0.19 3.33-0.07 4.97h1.06c-0.2-2.54-0.09-5.05 0.51-7.92 0.21-1.02 1.1-1.78 2.21-1.88 6.3-0.59 11.69-0.86 16.98-0.86 4.97 0 9.99 0.22 16.81 0.75 2 0.15 3.53 1.74 3.49 3.61 -0.05 2.2-0.28 4.22-0.69 6.29h1.07c0.39-2.02 0.62-4.02 0.67-6.27 0.01-0.66-0.13-1.28-0.39-1.85 0.33-0.07 0.85-0.16 1.51-0.21 2.51-0.18 8.07-0.14 10.11 0 0.66 0.05 1.19 0.14 1.51 0.21 -0.26 0.57-0.41 1.19-0.39 1.85 0.05 2.25 0.28 4.25 0.67 6.27h1.07c-0.41-2.07-0.64-4.09-0.68-6.29 -0.04-1.87 1.49-3.46 3.49-3.61 6.82-0.53 11.84-0.75 16.81-0.75 5.29 0 10.69 0.27 16.98 0.86 1.11 0.1 2 0.86 2.21 1.88 0.6 2.87 0.71 5.38 0.51 7.92h1.05c0.13-1.64 0.1-3.27-0.07-4.97H153V78.74z" fill="#26120b" stroke-width="none" opacity="1"></path></g></g></g><rect id="SvgjsRect1036" width="200" height="15" x="0" y="185" fill="#ecf0f1" opacity="0.5" style="display:none;"></rect><text id="SvgjsText1037" font-family="&quot;Roboto&quot;, &quot;Helvetica Neue&quot;, Helvetica, Arial, sans-serif" style="font-size:0.84em;font-family:&quot;Roboto&quot;, &quot;Helvetica Neue&quot;, Helvetica, Arial, sans-serif;text-anchor:middle;font-weight:400;display:none;" font-size="0.84em" text-anchor="middle" font-weight="400" fill="#000000" x="100" y="185"><tspan id="SvgjsTspan1038" dy="1.2em" x="100" style="font-size:0.84em;font-family:&quot;Roboto&quot;, &quot;Helvetica Neue&quot;, Helvetica, Arial, sans-serif;text-anchor:middle;font-weight:400;">Created on AvatarMaker.com</tspan></text></g><defs id="SvgjsDefs1001"><radialGradient id="SvgjsRadialGradient2886" cx="100" cy="114" r="41" gradientUnits="userSpaceOnUse" class="svga-on-canvas-facehighlight-gradient-single-0"><stop id="SvgjsStop2887" stop-opacity="0.5" stop-color="#e9bfa9" offset="0" ></stop><stop id="SvgjsStop2888" stop-opacity="0" stop-color="#daa488" offset="0.9" ></stop></radialGradient><radialGradient id="SvgjsRadialGradient2890" cx="100" cy="54" r="37" gradientUnits="userSpaceOnUse" class="svga-on-canvas-facehighlight-gradient-single-1"><stop id="SvgjsStop2891" stop-opacity="0.5" stop-color="#e9bfa9" offset="0" ></stop><stop id="SvgjsStop2892" stop-opacity="0" stop-color="#daa488" offset="0.9" ></stop></radialGradient><radialGradient id="SvgjsRadialGradient3430" cx="129.041" cy="83.945" r="15.117" gradientTransform="matrix(-0.9945 0.1042 0.1042 0.9945 192.8281 -12.4633)" gradientUnits="userSpaceOnUse" class="svga-on-canvas-eyesback-gradient-left-0"><stop id="SvgjsStop3431" stop-opacity="1" stop-color="#ffffff" offset="0" ></stop><stop id="SvgjsStop3432" stop-opacity="1" stop-color="#fcfdfd" offset="0.315" ></stop><stop id="SvgjsStop3433" stop-opacity="1" stop-color="#f4f7f8" offset="0.504" ></stop><stop id="SvgjsStop3434" stop-opacity="1" stop-color="#e5ecef" offset="0.66" ></stop><stop id="SvgjsStop3435" stop-opacity="1" stop-color="#d8e2e7" offset="0.76" ></stop></radialGradient><radialGradient id="SvgjsRadialGradient3437" cx="128.643" cy="83.986" r="15.116" gradientTransform="matrix(0.9945 0.1042 -0.1042 0.9945 7.1738 -12.4633)" gradientUnits="userSpaceOnUse" class="svga-on-canvas-eyesback-gradient-right-0"><stop id="SvgjsStop3438" stop-opacity="1" stop-color="#ffffff" offset="0" ></stop><stop id="SvgjsStop3439" stop-opacity="1" stop-color="#fcfdfd" offset="0.316" ></stop><stop id="SvgjsStop3440" stop-opacity="1" stop-color="#f4f7f8" offset="0.505" ></stop><stop id="SvgjsStop3441" stop-opacity="1" stop-color="#e5ecef" offset="0.661" ></stop><stop id="SvgjsStop3442" stop-opacity="1" stop-color="#d8e2e7" offset="0.76" ></stop></radialGradient><radialGradient id="SvgjsRadialGradient3444" cx="129.041" cy="83.945" r="15.117" gradientTransform="matrix(-0.9945 0.1042 0.1042 0.9945 192.8281 -12.4633)" gradientUnits="userSpaceOnUse" class="svga-on-canvas-eyesfront-gradient-left-0"><stop id="SvgjsStop3445" stop-opacity="1" stop-color="#ffffff" offset="0" ></stop><stop id="SvgjsStop3446" stop-opacity="1" stop-color="#fcfdfd" offset="0.316" ></stop><stop id="SvgjsStop3447" stop-opacity="1" stop-color="#f4f7f8" offset="0.505" ></stop><stop id="SvgjsStop3448" stop-opacity="1" stop-color="#e5ecef" offset="0.661" ></stop><stop id="SvgjsStop3449" stop-opacity="1" stop-color="#d8e2e7" offset="0.76" ></stop></radialGradient><radialGradient id="SvgjsRadialGradient3453" cx="121.986" cy="82.496" fx="133.239" fy="82.527" r="16.003" gradientTransform="matrix(0.9998 0.0208 0.0166 -0.7998 -45.3195 145.9395)" gradientUnits="userSpaceOnUse" class="svga-on-canvas-eyesfront-gradient-left-3"><stop id="SvgjsStop3454" stop-opacity="1" stop-color="#cb8b6a" offset="0" ></stop><stop id="SvgjsStop3455" stop-opacity="0.3" stop-color="#cb8b6a" offset="0.7" ></stop><stop id="SvgjsStop3456" stop-opacity="0" stop-color="#daa488" offset="1" ></stop></radialGradient><radialGradient id="SvgjsRadialGradient3458" cx="68.931" cy="105.995" r="29.524" gradientTransform="matrix(1.0336 0 0 1.0336 -1.6796 1.3127)" gradientUnits="userSpaceOnUse" class="svga-on-canvas-eyesfront-gradient-left-4"><stop id="SvgjsStop3459" stop-opacity="0" stop-color="#000000" offset="0.95" ></stop><stop id="SvgjsStop3460" stop-opacity="0.2" stop-color="#000000" offset="1" ></stop></radialGradient><radialGradient id="SvgjsRadialGradient3464" cx="128.643" cy="83.986" r="15.116" gradientTransform="matrix(0.9945 0.1042 -0.1042 0.9945 7.1738 -12.4633)" gradientUnits="userSpaceOnUse" class="svga-on-canvas-eyesfront-gradient-right-0"><stop id="SvgjsStop3465" stop-opacity="1" stop-color="#ffffff" offset="0" ></stop><stop id="SvgjsStop3466" stop-opacity="1" stop-color="#fcfdfd" offset="0.316" ></stop><stop id="SvgjsStop3467" stop-opacity="1" stop-color="#f4f7f8" offset="0.505" ></stop><stop id="SvgjsStop3468" stop-opacity="1" stop-color="#e5ecef" offset="0.661" ></stop><stop id="SvgjsStop3469" stop-opacity="1" stop-color="#d8e2e7" offset="0.76" ></stop></radialGradient><radialGradient id="SvgjsRadialGradient3473" cx="121.587" cy="82.496" fx="132.839" fy="82.527" r="16.003" gradientTransform="matrix(-0.9998 0.0208 -0.0166 -0.7998 244.5208 145.9478)" gradientUnits="userSpaceOnUse" class="svga-on-canvas-eyesfront-gradient-right-3"><stop id="SvgjsStop3474" stop-opacity="1" stop-color="#cb8b6a" offset="0" ></stop><stop id="SvgjsStop3475" stop-opacity="0.3" stop-color="#cb8b6a" offset="0.7" ></stop><stop id="SvgjsStop3476" stop-opacity="0" stop-color="#daa488" offset="1" ></stop></radialGradient><radialGradient id="SvgjsRadialGradient3478" cx="69.316" cy="105.995" r="29.524" gradientTransform="matrix(-1.0336 0 0 1.0336 201.6796 1.3127)" gradientUnits="userSpaceOnUse" class="svga-on-canvas-eyesfront-gradient-right-4"><stop id="SvgjsStop3479" stop-opacity="0" stop-color="#000000" offset="0.95" ></stop><stop id="SvgjsStop3480" stop-opacity="0.2" stop-color="#000000" offset="1" ></stop></radialGradient><radialGradient id="SvgjsRadialGradient3485" cx="-568.659" cy="-521.042" r="59.751" gradientTransform="matrix(0.096 -0.0248 0.0245 0.0961 141.2814 119.9893)" gradientUnits="userSpaceOnUse" class="svga-on-canvas-eyesiris-gradient-left-1"><stop id="SvgjsStop3486" stop-opacity="1" stop-color="#ffffff" offset="0" ></stop><stop id="SvgjsStop3487" stop-opacity="0" stop-color="#ffffff" offset="1" ></stop></radialGradient><radialGradient id="SvgjsRadialGradient3489" cx="-582.838" cy="-519.099" r="59.745" gradientTransform="matrix(0.0991 8.856319e-004 -0.0011 0.0991 131.1134 135.9855)" gradientUnits="userSpaceOnUse" class="svga-on-canvas-eyesiris-gradient-left-2"><stop id="SvgjsStop3490" stop-opacity="1" stop-color="#ffffff" offset="0" ></stop><stop id="SvgjsStop3491" stop-opacity="0" stop-color="#ffffff" offset="1" ></stop></radialGradient><linearGradient id="SvgjsLinearGradient3495" x1="122.67" y1="88.268" x2="123.606" y2="87.152" gradientTransform="matrix(1 0 0 1 -52 0)" gradientUnits="userSpaceOnUse" class="svga-on-canvas-eyesiris-gradient-left-5"><stop id="SvgjsStop3496" stop-opacity="1" stop-color="#ffffff" offset="0" ></stop><stop id="SvgjsStop3497" stop-opacity="0" stop-color="#ffffff" offset="1" ></stop></linearGradient><linearGradient id="SvgjsLinearGradient3499" x1="127.212" y1="82.296" x2="126.463" y2="83.189" gradientTransform="matrix(1 0 0 1 -52 0)" gradientUnits="userSpaceOnUse" class="svga-on-canvas-eyesiris-gradient-left-6"><stop id="SvgjsStop3500" stop-opacity="1" stop-color="#ffffff" offset="0" ></stop><stop id="SvgjsStop3501" stop-opacity="0" stop-color="#ffffff" offset="1" ></stop></linearGradient><linearGradient id="SvgjsLinearGradient3503" x1="129.636" y1="79.822" x2="127.91" y2="81.879" gradientTransform="matrix(1 0 0 1 -52 0)" gradientUnits="userSpaceOnUse" class="svga-on-canvas-eyesiris-gradient-left-7"><stop id="SvgjsStop3504" stop-opacity="1" stop-color="#ffffff" offset="0" ></stop><stop id="SvgjsStop3505" stop-opacity="0" stop-color="#ffffff" offset="1" ></stop></linearGradient><radialGradient id="SvgjsRadialGradient3508" cx="-568.654" cy="-521.042" r="59.752" gradientTransform="matrix(0.096 -0.0248 0.0245 0.0961 193.2804 119.9894)" gradientUnits="userSpaceOnUse" class="svga-on-canvas-eyesiris-gradient-right-1"><stop id="SvgjsStop3509" stop-opacity="1" stop-color="#ffffff" offset="0" ></stop><stop id="SvgjsStop3510" stop-opacity="0" stop-color="#ffffff" offset="1" ></stop></radialGradient><radialGradient id="SvgjsRadialGradient3512" cx="-582.833" cy="-519.102" r="59.747" gradientTransform="matrix(0.0991 8.856319e-004 -0.0011 0.0991 183.1126 135.9856)" gradientUnits="userSpaceOnUse" class="svga-on-canvas-eyesiris-gradient-right-2"><stop id="SvgjsStop3513" stop-opacity="1" stop-color="#ffffff" offset="0" ></stop><stop id="SvgjsStop3514" stop-opacity="0" stop-color="#ffffff" offset="1" ></stop></radialGradient><linearGradient id="SvgjsLinearGradient3518" x1="122.67" y1="88.268" x2="123.606" y2="87.152" gradientUnits="userSpaceOnUse" class="svga-on-canvas-eyesiris-gradient-right-5"><stop id="SvgjsStop3519" stop-opacity="1" stop-color="#ffffff" offset="0" ></stop><stop id="SvgjsStop3520" stop-opacity="0" stop-color="#ffffff" offset="1" ></stop></linearGradient><linearGradient id="SvgjsLinearGradient3522" x1="127.212" y1="82.296" x2="126.463" y2="83.189" gradientUnits="userSpaceOnUse" class="svga-on-canvas-eyesiris-gradient-right-6"><stop id="SvgjsStop3523" stop-opacity="1" stop-color="#ffffff" offset="0" ></stop><stop id="SvgjsStop3524" stop-opacity="0" stop-color="#ffffff" offset="1" ></stop></linearGradient><linearGradient id="SvgjsLinearGradient3526" x1="129.636" y1="79.822" x2="127.91" y2="81.879" gradientUnits="userSpaceOnUse" class="svga-on-canvas-eyesiris-gradient-right-7"><stop id="SvgjsStop3527" stop-opacity="1" stop-color="#ffffff" offset="0" ></stop><stop id="SvgjsStop3528" stop-opacity="0" stop-color="#ffffff" offset="1" ></stop></linearGradient><linearGradient id="SvgjsLinearGradient3639" x1="100" y1="171" x2="100" y2="128" gradientUnits="userSpaceOnUse" class="svga-on-canvas-chinshadow-gradient-single-0"><stop id="SvgjsStop3640" stop-opacity="0.8" stop-color="#cb8b6a" offset="0" ></stop><stop id="SvgjsStop3641" stop-opacity="1" stop-color="#ac5f38" offset="0.7" ></stop></linearGradient><linearGradient id="SvgjsLinearGradient3681" x1="100" y1="142" x2="100" y2="139" gradientUnits="userSpaceOnUse" class="svga-on-canvas-mouth-gradient-single-0"><stop id="SvgjsStop3682" stop-opacity="1" stop-color="#d29779" offset="0.1" ></stop><stop id="SvgjsStop3683" stop-opacity="1" stop-color="#cb8b6a" offset="1" ></stop></linearGradient></defs></svg>